<svg width="38" height="26" viewBox="0 0 38 26" fill="none" xmlns="http://www.w3.org/2000/svg">
<path d="M7.05129 20.5269C7.44651 20.9126 8.07963 20.905 8.4654 20.5098C8.85117 20.1145 8.84351 19.4814 8.44829 19.0956L7.05129 20.5269ZM1 13.2228L0.301497 12.5072C0.108705 12.6954 5.96046e-08 12.9534 0 13.2228C0 13.4922 0.108705 13.7502 0.301497 13.9384L1 13.2228ZM8.4483 7.34995C8.84352 6.96418 8.85117 6.33106 8.4654 5.93584C8.07963 5.54062 7.44651 5.53296 7.05129 5.91874L8.4483 7.34995ZM30.9487 5.91874C30.5535 5.53296 29.9204 5.54062 29.5346 5.93584C29.1488 6.33106 29.1565 6.96418 29.5517 7.34995L30.9487 5.91874ZM37 13.2228L37.6985 13.9384C37.8913 13.7502 38 13.4922 38 13.2228C38 12.9534 37.8913 12.6954 37.6985 12.5072L37 13.2228ZM29.5517 19.0956C29.1565 19.4814 29.1488 20.1145 29.5346 20.5098C29.9204 20.905 30.5535 20.9126 30.9487 20.5269L29.5517 19.0956ZM14.8181 24.7365C14.6726 25.2693 14.9865 25.8192 15.5193 25.9647C16.0521 26.1102 16.6019 25.7962 16.7474 25.2635L14.8181 24.7365ZM18.9995 13.2217L18.0355 12.9558L18.0348 12.9583L18.9995 13.2217ZM23.335 1.26593C23.4819 0.733534 23.1693 0.182879 22.6369 0.0360083C22.1045 -0.110862 21.5539 0.20167 21.407 0.734068L23.335 1.26593ZM8.44829 19.0956L1.6985 12.5072L0.301497 13.9384L7.05129 20.5269L8.44829 19.0956ZM1.6985 13.9384L8.4483 7.34995L7.05129 5.91874L0.301497 12.5072L1.6985 13.9384ZM29.5517 7.34995L36.3015 13.9384L37.6985 12.5072L30.9487 5.91874L29.5517 7.34995ZM36.3015 12.5072L29.5517 19.0956L30.9487 20.5269L37.6985 13.9384L36.3015 12.5072ZM16.7474 25.2635L19.9641 13.4852L18.0348 12.9583L14.8181 24.7365L16.7474 25.2635ZM19.9634 13.4877L23.335 1.26593L21.407 0.734068L18.0355 12.9558L19.9634 13.4877Z" fill="#01EEFF"/>
</svg>