<svg width="69" height="64" viewBox="0 0 69 64" fill="none" xmlns="http://www.w3.org/2000/svg">
<g clip-path="url(#clip0_19_68)">
<path d="M28.0312 47C17.25 50 17.25 42 12.9375 41ZM43.125 53V45.26C43.2059 44.3063 43.067 43.3476 42.7175 42.4476C42.368 41.5476 41.816 40.7268 41.0981 40.04C47.8688 39.34 54.9844 36.96 54.9844 26.04C54.9838 23.2477 53.8258 20.5624 51.75 18.54C52.7329 16.097 52.6634 13.3967 51.5559 11C51.5559 11 49.0116 10.3 43.125 13.96C38.1829 12.7176 32.9734 12.7176 28.0312 13.96C22.1447 10.3 19.6003 11 19.6003 11C18.4928 13.3967 18.4233 16.097 19.4062 18.54C17.315 20.5774 16.1558 23.2869 16.1719 26.1C16.1719 36.94 23.2875 39.32 30.0581 40.1C29.3487 40.7799 28.8016 41.5908 28.4524 42.4798C28.1032 43.3689 27.9597 44.3161 28.0312 45.26V53" fill="#01EEFF"/>
<path d="M28.0312 47C17.25 50 17.25 42 12.9375 41M43.125 53V45.26C43.2059 44.3063 43.067 43.3476 42.7175 42.4476C42.368 41.5476 41.816 40.7268 41.0981 40.04C47.8688 39.34 54.9844 36.96 54.9844 26.04C54.9838 23.2477 53.8258 20.5624 51.75 18.54C52.7329 16.097 52.6634 13.3967 51.5559 11C51.5559 11 49.0116 10.3 43.125 13.96C38.1829 12.7176 32.9734 12.7176 28.0312 13.96C22.1447 10.3 19.6003 11 19.6003 11C18.4928 13.3967 18.4233 16.097 19.4062 18.54C17.315 20.5774 16.1558 23.2869 16.1719 26.1C16.1719 36.94 23.2875 39.32 30.0581 40.1C29.3487 40.7799 28.8016 41.5908 28.4524 42.4798C28.1032 43.3689 27.9597 44.3161 28.0312 45.26V53" stroke="#01EEFF" stroke-width="4" stroke-linecap="round" stroke-linejoin="round"/>
</g>
<defs>
<clipPath id="clip0_19_68">
<rect width="51.75" height="48" fill="white" transform="translate(8.625 9)"/>
</clipPath>
</defs>
</svg>