<svg width="69" height="64" viewBox="0 0 69 64" fill="none" xmlns="http://www.w3.org/2000/svg">
<path d="M46.3594 21H46.3809M23.7188 12H45.2812C51.2356 12 56.0625 16.4772 56.0625 22V42C56.0625 47.5228 51.2356 52 45.2812 52H23.7188C17.7644 52 12.9375 47.5228 12.9375 42V22C12.9375 16.4772 17.7644 12 23.7188 12ZM43.125 30.74C43.3911 32.4045 43.0846 34.1044 42.249 35.598C41.4135 37.0916 40.0915 38.3028 38.471 39.0593C36.8505 39.8159 35.0142 40.0792 33.223 39.8119C31.4319 39.5445 29.7773 38.7602 28.4945 37.5703C27.2117 36.3805 26.366 34.8457 26.0778 33.1844C25.7896 31.5231 26.0735 29.8198 26.8891 28.3167C27.7048 26.8137 29.0106 25.5875 30.6209 24.8125C32.2312 24.0375 34.0639 23.7532 35.8584 24C37.6889 24.2518 39.3836 25.0429 40.6921 26.2566C42.0006 27.4703 42.8536 29.0422 43.125 30.74Z" stroke="#01EEFF" stroke-width="4" stroke-linecap="round" stroke-linejoin="round"/>
</svg>