<svg width="69" height="64" viewBox="0 0 69 64" fill="none" xmlns="http://www.w3.org/2000/svg">
<path d="M43.125 24C46.5562 24 49.8469 25.2643 52.2732 27.5147C54.6994 29.7652 56.0625 32.8174 56.0625 36V50H47.4375V36C47.4375 34.9391 46.9831 33.9217 46.1744 33.1716C45.3656 32.4214 44.2687 32 43.125 32C41.9813 32 40.8844 32.4214 40.0756 33.1716C39.2669 33.9217 38.8125 34.9391 38.8125 36V50H30.1875V36C30.1875 32.8174 31.5506 29.7652 33.9768 27.5147C36.4031 25.2643 39.6938 24 43.125 24Z" fill="#01EEFF"/>
<path d="M21.5625 26H12.9375V50H21.5625V26Z" fill="#01EEFF"/>
<path d="M17.25 20C19.6317 20 21.5625 18.2091 21.5625 16C21.5625 13.7909 19.6317 12 17.25 12C14.8683 12 12.9375 13.7909 12.9375 16C12.9375 18.2091 14.8683 20 17.25 20Z" fill="#01EEFF"/>
<path d="M43.125 24C46.5562 24 49.8469 25.2643 52.2732 27.5147C54.6994 29.7652 56.0625 32.8174 56.0625 36V50H47.4375V36C47.4375 34.9391 46.9831 33.9217 46.1744 33.1716C45.3656 32.4214 44.2687 32 43.125 32C41.9813 32 40.8844 32.4214 40.0756 33.1716C39.2669 33.9217 38.8125 34.9391 38.8125 36V50H30.1875V36C30.1875 32.8174 31.5506 29.7652 33.9768 27.5147C36.4031 25.2643 39.6938 24 43.125 24Z" stroke="#01EEFF" stroke-width="4" stroke-linecap="round" stroke-linejoin="round"/>
<path d="M21.5625 26H12.9375V50H21.5625V26Z" stroke="#01EEFF" stroke-width="4" stroke-linecap="round" stroke-linejoin="round"/>
<path d="M17.25 20C19.6317 20 21.5625 18.2091 21.5625 16C21.5625 13.7909 19.6317 12 17.25 12C14.8683 12 12.9375 13.7909 12.9375 16C12.9375 18.2091 14.8683 20 17.25 20Z" stroke="#01EEFF" stroke-width="4" stroke-linecap="round" stroke-linejoin="round"/>
</svg>