<svg width="68" height="64" viewBox="0 0 68 64" fill="none" xmlns="http://www.w3.org/2000/svg">
<path d="M57.375 15C55.3401 16.3509 53.087 17.3842 50.7025 18.06C49.4227 16.675 47.7218 15.6934 45.8299 15.2478C43.9381 14.8023 41.9464 14.9144 40.1244 15.5689C38.3024 16.2234 36.7379 17.3888 35.6426 18.9074C34.5472 20.426 33.9739 22.2246 34 24.06V26.06C30.2656 26.1511 26.5652 25.3716 23.2284 23.7909C19.8916 22.2101 17.0219 19.8772 14.875 17C14.875 17 6.375 35 25.5 43C21.1236 45.7959 15.9102 47.1978 10.625 47C29.75 57 53.125 47 53.125 24C53.123 23.4429 53.0661 22.8872 52.955 22.34C55.1238 20.327 56.6543 17.7854 57.375 15Z" fill="#01EEFF" stroke="#01EEFF" stroke-width="2.5" stroke-linecap="round" stroke-linejoin="round"/>
</svg>